<svg xmlns="http://www.w3.org/2000/svg" viewBox="0 0 186 69.65"><defs><style>.cls-1{fill:#fff;}.cls-2{fill:#22b573;}</style></defs><title>FinZi-logo-footer</title><g id="Capa_2" data-name="Capa 2"><g id="Capa_1-2" data-name="Capa 1"><path class="cls-1" d="M18,6.29H37.08a4.42,4.42,0,0,1,4.35,5.21L40.8,15H20.3a1.92,1.92,0,0,0-1.89,1.59L16.24,28.9H33a4.43,4.43,0,0,1,4.36,5.19l-.54,3H14.72l-3.33,19A4.41,4.41,0,0,1,7,59.79H0L8,14.6A10.06,10.06,0,0,1,18,6.29Z"></path><path class="cls-1" d="M46.78,17.54h5.48a4.43,4.43,0,0,1,4.36,5.19L50.7,56.14a4.41,4.41,0,0,1-4.35,3.65h-7Zm.84-11.29A7.81,7.81,0,0,1,55.32,0c3.74,0,6,2.75,5.42,6.25a7.79,7.79,0,0,1-7.63,6.26C49.3,12.51,47,9.76,47.62,6.25Z"></path><path class="cls-1" d="M90.27,36.45C91.42,29.67,88.37,26,82.72,26s-9.91,3.43-11.28,9.91L67.88,56.14a4.41,4.41,0,0,1-4.35,3.65h-7L64,17.54h5.49a4.42,4.42,0,0,1,4.35,5.19h0a19.05,19.05,0,0,1,13.65-5.8c9.92,0,15.79,6.41,13.73,18.08L97.41,56.15a4.42,4.42,0,0,1-4.35,3.64h-6.9Z"></path><path class="cls-1" d="M172,17.54h5.48a4.42,4.42,0,0,1,4.35,5.19l-5.91,33.41a4.42,4.42,0,0,1-4.35,3.65h-7.05Zm.83-11.29A7.81,7.81,0,0,1,180.49,0c3.73,0,6,2.75,5.41,6.25a7.79,7.79,0,0,1-7.62,6.26C174.46,12.51,172.17,9.76,172.78,6.25Z"></path><path class="cls-2" d="M166.37,18.45c.16,3.68-2.58,6.64-3.27,7.29h.12s-8.64,7.22-25.72,18c-1.74,1.09-3.48,2.3-5.1,3.5,2.61-.44,5.45-.9,8.07-1.11,10.71-.84,20.25,1.51,20.54,8.15.28,6.41-7.51,13.93-7.51,13.93a3.63,3.63,0,0,0-1.16-3.71c-2.22-2.22-7.12-5.28-16-4.58-11.07.86-25.74,9.52-25.74,9.52l.11-.25a2.72,2.72,0,0,1-.34.5,22.16,22.16,0,0,1-9.08-11.07c0-.12-.13-.23-.14-.47-.3-6.76,36.44-29.54,48.19-36.65a128.18,128.18,0,0,0-19.45.22c-9.64.75-18.29,2.26-21.15,2.49-1.55.12-2.17-.43-2.23-1.73-.17-4,6.31-14.07,6.31-14.07,1.41-.59,5.68-1.28,11.39-1.73,12-.94,29.83-.67,37.09,4.23C165.07,13.43,166.26,16.08,166.37,18.45Z"></path></g></g></svg>