<svg xmlns="http://www.w3.org/2000/svg" viewBox="0 0 582.28 218.06"><defs><style>.cls-1{fill:#662d91;}.cls-2{fill:#22b573;}</style></defs><title>finzi-logo</title><g id="Capa_2" data-name="Capa 2"><g id="Capa_1-2" data-name="Capa 1"><path class="cls-1" d="M56.2,19.68h59.89A13.84,13.84,0,0,1,129.7,36l-2,10.81H63.56a6,6,0,0,0-5.94,5L50.85,90.49h52.6a13.83,13.83,0,0,1,13.62,16.23l-1.68,9.55H46.08L35.67,175.73A13.84,13.84,0,0,1,22,187.18H0L25.13,45.72A31.55,31.55,0,0,1,56.2,19.68Z"></path><path class="cls-1" d="M146.45,54.91h17.16a13.84,13.84,0,0,1,13.63,16.24L158.73,175.76a13.83,13.83,0,0,1-13.62,11.42H123.05Zm2.62-35.33C151,8.59,161.25,0,173.18,0c11.7,0,18.87,8.59,17,19.58S178,39.15,166.26,39.15C154.32,39.15,147.16,30.56,149.07,19.58Z"></path><path class="cls-1" d="M282.61,114.12c3.58-21.25-6-32.71-23.64-32.71s-31,10.75-35.33,31l-11.12,63.29a13.84,13.84,0,0,1-13.63,11.44h-22l23.4-132.27h17.18A13.84,13.84,0,0,1,231,71.15h0A59.64,59.64,0,0,1,273.77,53c31,0,49.43,20.06,43,56.59l-11.81,66.19a13.83,13.83,0,0,1-13.62,11.4H269.71Z"></path><path class="cls-1" d="M538.28,54.91h17.17a13.83,13.83,0,0,1,13.62,16.24l-18.5,104.61A13.83,13.83,0,0,1,537,187.18H514.88Zm2.63-35.33C542.82,8.59,553.08,0,565,0c11.7,0,18.86,8.59,17,19.58S569.79,39.15,558.1,39.15C546.16,39.15,539,30.56,540.91,19.58Z"></path><path class="cls-2" d="M520.82,57.77c.51,11.51-8.06,20.76-10.22,22.79l.38,0s-27.05,22.62-80.54,56.28c-5.45,3.41-10.9,7.19-16,10.94,8.17-1.38,17.08-2.83,25.27-3.47,33.54-2.63,63.39,4.72,64.3,25.52.88,20.07-23.51,43.61-23.51,43.61s2.21-5.79-3.61-11.61c-7-7-22.31-16.56-50.24-14.37-34.65,2.72-80.57,29.81-80.57,29.81l.34-.77a13.21,13.21,0,0,1-1.05,1.58s-20.71-11.8-28.44-34.68c0-.37-.4-.72-.44-1.46C315.6,160.74,430.61,89.45,467.4,67.18c-18.76-1.51-40.79-.9-60.91.68-30.18,2.36-57.26,7.1-66.2,7.8-4.85.38-6.79-1.33-7-5.42-.55-12.63,19.75-44,19.75-44,4.41-1.84,17.77-4,35.66-5.41,37.63-3,93.37-2.11,116.1,13.26C516.77,42.05,520.5,50.33,520.82,57.77Z"></path></g></g></svg>